<svg width="16" height="19" viewBox="0 0 16 19" fill="none" xmlns="http://www.w3.org/2000/svg">
<path d="M15.125 15.1111H14.5625V8.02778C14.5625 5.0882 12.118 2.65903 8.9375 2.25486V1.44445C8.9375 0.984031 8.51797 0.611115 8 0.611115C7.48203 0.611115 7.0625 0.984031 7.0625 1.44445V2.25486C3.88203 2.65903 1.4375 5.0882 1.4375 8.02778V15.1111H0.875C0.460156 15.1111 0.125 15.409 0.125 15.7778V16.4444C0.125 16.5361 0.209375 16.6111 0.3125 16.6111H5.375C5.375 17.8986 6.55156 18.9444 8 18.9444C9.44844 18.9444 10.625 17.8986 10.625 16.6111H15.6875C15.7906 16.6111 15.875 16.5361 15.875 16.4444V15.7778C15.875 15.409 15.5398 15.1111 15.125 15.1111ZM8 17.6111C7.37891 17.6111 6.875 17.1632 6.875 16.6111H9.125C9.125 17.1632 8.62109 17.6111 8 17.6111ZM3.125 15.1111V8.02778C3.125 6.86945 3.63125 5.78195 4.55234 4.9632C5.47344 4.14445 6.69688 3.69445 8 3.69445C9.30313 3.69445 10.5266 4.14445 11.4477 4.9632C12.3687 5.78195 12.875 6.86945 12.875 8.02778V15.1111H3.125Z" fill="white"/>
</svg>
