<svg width="22" height="20" viewBox="0 0 22 20" fill="none" xmlns="http://www.w3.org/2000/svg">
<path d="M9.87519 9.77779C9.87519 10.043 9.99372 10.2974 10.2047 10.4849C10.4157 10.6724 10.7018 10.7778 11.0002 10.7778C11.2986 10.7778 11.5847 10.6724 11.7957 10.4849C12.0067 10.2974 12.1252 10.043 12.1252 9.77779C12.1252 9.51257 12.0067 9.25822 11.7957 9.07068C11.5847 8.88315 11.2986 8.77779 11.0002 8.77779C10.7018 8.77779 10.4157 8.88315 10.2047 9.07068C9.99372 9.25822 9.87519 9.51257 9.87519 9.77779ZM14.5627 9.77779C14.5627 10.043 14.6812 10.2974 14.8922 10.4849C15.1032 10.6724 15.3893 10.7778 15.6877 10.7778C15.9861 10.7778 16.2722 10.6724 16.4832 10.4849C16.6942 10.2974 16.8127 10.043 16.8127 9.77779C16.8127 9.51257 16.6942 9.25822 16.4832 9.07068C16.2722 8.88315 15.9861 8.77779 15.6877 8.77779C15.3893 8.77779 15.1032 8.88315 14.8922 9.07068C14.6812 9.25822 14.5627 9.51257 14.5627 9.77779ZM5.18769 9.77779C5.18769 10.043 5.30622 10.2974 5.5172 10.4849C5.72818 10.6724 6.01433 10.7778 6.31269 10.7778C6.61106 10.7778 6.89721 10.6724 7.10819 10.4849C7.31917 10.2974 7.43769 10.043 7.43769 9.77779C7.43769 9.51257 7.31917 9.25822 7.10819 9.07068C6.89721 8.88315 6.61106 8.77779 6.31269 8.77779C6.01433 8.77779 5.72818 8.88315 5.5172 9.07068C5.30622 9.25822 5.18769 9.51257 5.18769 9.77779ZM20.6846 6.16112C20.1549 5.04237 19.3955 4.03821 18.4275 3.17571C17.4663 2.3182 16.3253 1.63659 15.0689 1.16946C13.7799 0.688208 12.4111 0.444458 11.0002 0.444458H10.9533C9.53301 0.450708 8.15723 0.700708 6.86348 1.19237C5.61791 1.66429 4.48753 2.34712 3.53535 3.20279C2.57676 4.06321 1.82441 5.06321 1.3041 6.17779C0.765038 7.33196 0.493163 8.55904 0.500194 9.82154C0.508147 11.2684 0.893222 12.6938 1.62519 13.9861V17.1528C1.62519 17.407 1.73878 17.6507 1.94097 17.8304C2.14316 18.0102 2.41738 18.1111 2.70332 18.1111H6.26816C7.72198 18.7618 9.32565 19.1041 10.9533 19.1111H11.0025C12.4064 19.1111 13.7682 18.8695 15.0502 18.3965C16.3002 17.935 17.437 17.2613 18.3971 16.4132C19.365 15.5611 20.1268 14.5653 20.6588 13.4549C21.2119 12.3049 21.4932 11.082 21.5002 9.81946C21.5072 8.55071 21.2307 7.31946 20.6846 6.16112ZM17.1432 15.2861C15.5002 16.732 13.3205 17.5278 11.0002 17.5278H10.9604C9.54707 17.5215 8.14316 17.209 6.90332 16.6215L6.70644 16.5278H3.40644V13.5945L3.30098 13.4195C2.64004 12.3174 2.28848 11.0695 2.28144 9.81321C2.27207 7.73612 3.16504 5.78612 4.80332 4.31737C6.43926 2.84862 8.62598 2.03612 10.9627 2.02779H11.0025C12.1744 2.02779 13.3111 2.22987 14.3822 2.62987C15.4275 3.01946 16.365 3.57987 17.1713 4.29654C17.9752 5.01112 18.608 5.84654 19.0463 6.77571C19.501 7.73821 19.7283 8.75904 19.7236 9.81321C19.7096 11.8882 18.7932 13.832 17.1432 15.2861Z" fill="#002766"/>
</svg>
