<svg width="22" height="20" viewBox="0 0 22 20" fill="none" xmlns="http://www.w3.org/2000/svg">
<path d="M11 0.444458C5.20156 0.444458 0.5 4.62362 0.5 9.77779C0.5 14.932 5.20156 19.1111 11 19.1111C16.7984 19.1111 21.5 14.932 21.5 9.77779C21.5 4.62362 16.7984 0.444458 11 0.444458ZM11 17.5278C6.18594 17.5278 2.28125 14.057 2.28125 9.77779C2.28125 5.49862 6.18594 2.02779 11 2.02779C15.8141 2.02779 19.7188 5.49862 19.7188 9.77779C19.7188 14.057 15.8141 17.5278 11 17.5278Z" fill="#002766"/>
<path d="M9.875 6.11111C9.875 6.37633 9.99353 6.63069 10.2045 6.81822C10.4155 7.00576 10.7016 7.11111 11 7.11111C11.2984 7.11111 11.5845 7.00576 11.7955 6.81822C12.0065 6.63069 12.125 6.37633 12.125 6.11111C12.125 5.8459 12.0065 5.59154 11.7955 5.40401C11.5845 5.21647 11.2984 5.11111 11 5.11111C10.7016 5.11111 10.4155 5.21647 10.2045 5.40401C9.99353 5.59154 9.875 5.8459 9.875 6.11111ZM11.5625 8.44445H10.4375C10.3344 8.44445 10.25 8.51945 10.25 8.61111V14.2778C10.25 14.3694 10.3344 14.4444 10.4375 14.4444H11.5625C11.6656 14.4444 11.75 14.3694 11.75 14.2778V8.61111C11.75 8.51945 11.6656 8.44445 11.5625 8.44445Z" fill="#002766"/>
</svg>
