<svg width="20" height="18" viewBox="0 0 20 18" fill="none" xmlns="http://www.w3.org/2000/svg">
<path d="M18.9061 14.1944H17.0311V12.5278C17.0311 12.4361 16.9467 12.3611 16.8436 12.3611H15.7186C15.6155 12.3611 15.5311 12.4361 15.5311 12.5278V14.1944H13.6561C13.553 14.1944 13.4686 14.2694 13.4686 14.3611V15.3611C13.4686 15.4528 13.553 15.5278 13.6561 15.5278H15.5311V17.1944C15.5311 17.2861 15.6155 17.3611 15.7186 17.3611H16.8436C16.9467 17.3611 17.0311 17.2861 17.0311 17.1944V15.5278H18.9061C19.0092 15.5278 19.0936 15.4528 19.0936 15.3611V14.3611C19.0936 14.2694 19.0092 14.1944 18.9061 14.1944ZM6.75376 8.49443C6.73266 8.31318 6.72094 8.12985 6.72094 7.94443C6.72094 7.61318 6.7561 7.29026 6.82173 6.97568C6.83813 6.90068 6.7936 6.8236 6.71626 6.79235C6.39751 6.66526 6.10454 6.49026 5.85141 6.26943C5.55315 6.01236 5.31844 5.70285 5.16227 5.36064C5.0061 5.01844 4.93189 4.65105 4.94438 4.28193C4.96548 3.61318 5.26782 2.97776 5.79516 2.49859C6.37407 1.97151 7.15219 1.68401 7.97954 1.69234C8.72719 1.69859 9.44907 1.95484 9.99516 2.40901C10.1803 2.56318 10.3397 2.73401 10.4733 2.91734C10.5202 2.98193 10.6116 3.00901 10.6913 2.98401C11.1038 2.85693 11.5397 2.76734 11.9874 2.72568C12.1186 2.71318 12.1936 2.58818 12.135 2.48401C11.3733 1.14443 9.81704 0.219428 8.01704 0.194428C5.42016 0.159011 3.25454 2.05276 3.25454 4.36109C3.25454 5.66943 3.93188 6.83609 4.9936 7.60068C4.24829 7.90693 3.56157 8.32985 2.96626 8.85901C1.68188 9.9986 0.95532 11.5028 0.908445 13.109C0.907819 13.1312 0.912207 13.1534 0.921349 13.1741C0.930492 13.1948 0.944204 13.2136 0.961677 13.2296C0.979151 13.2455 1.00003 13.2581 1.02309 13.2668C1.04615 13.2754 1.07092 13.2799 1.09595 13.2798H2.41079C2.51157 13.2798 2.59594 13.209 2.59829 13.1194C2.64282 11.9111 3.1936 10.7798 4.16157 9.92151C4.85063 9.30901 5.69438 8.88401 6.61548 8.67776C6.70454 8.65485 6.76548 8.57776 6.75376 8.49443ZM17.3124 7.94443C17.3124 5.66526 15.2522 3.81318 12.6975 3.77776C10.1006 3.74234 7.93735 5.6361 7.93735 7.94443C7.93735 9.25276 8.61704 10.4194 9.67641 11.184C8.92338 11.4943 8.23787 11.9203 7.65141 12.4423C6.36704 13.5819 5.64048 15.0861 5.5936 16.6903C5.59298 16.7125 5.59736 16.7346 5.60651 16.7553C5.61565 16.776 5.62936 16.7949 5.64683 16.8108C5.66431 16.8267 5.68519 16.8394 5.70825 16.848C5.73131 16.8567 5.75608 16.8611 5.7811 16.8611H7.0936C7.19438 16.8611 7.27876 16.7903 7.2811 16.7007C7.32563 15.4923 7.87641 14.3611 8.84438 13.5028C9.85454 12.6048 11.1952 12.1111 12.6249 12.1111C15.2124 12.1111 17.3124 10.2465 17.3124 7.94443ZM14.7459 9.82985C14.1788 10.334 13.4264 10.6111 12.6249 10.6111C11.8233 10.6111 11.0709 10.334 10.5038 9.82985C10.2207 9.57957 9.99709 9.28134 9.84612 8.95282C9.69514 8.6243 9.6199 8.27219 9.62485 7.91735C9.63188 7.23401 9.93891 6.5736 10.4756 6.08401C11.0381 5.57151 11.7905 5.2861 12.5944 5.27776C13.3889 5.27151 14.16 5.54651 14.7272 6.04026C15.3084 6.54651 15.6272 7.2236 15.6272 7.94443C15.6249 8.65693 15.3131 9.32568 14.7459 9.82985Z" fill="#002766"/>
</svg>
